<svg version="1.1" id="Layer_1" xmlns="http://www.w3.org/2000/svg" xmlns:xlink="http://www.w3.org/1999/xlink" x="0px" y="0px"
	 width="100%" viewBox="0 0 406 474" enable-background="new 0 0 406 474" xml:space="preserve">
<path fill="#000000" opacity="1.000000" stroke="none" 
	d="
M270.000000,475.000000 
	C180.025406,475.000000 90.550819,475.000000 1.038113,475.000000 
	C1.038113,317.070282 1.038113,159.140533 1.038113,1.105397 
	C136.224579,1.105397 271.449249,1.105397 406.836975,1.105397 
	C406.836975,158.999863 406.836975,316.999908 406.836975,475.000000 
	C361.473846,475.000000 315.986908,475.000000 270.000000,475.000000 
M282.044891,390.524628 
	C357.712219,340.896881 385.650146,242.792252 347.002136,161.775040 
	C327.447815,120.783646 296.784973,90.964218 255.241241,72.576561 
	C232.421402,62.476284 208.517166,57.325836 183.684143,57.749012 
	C183.684143,71.591385 183.684143,84.655968 183.684143,97.697151 
	C261.669769,99.227577 320.022003,159.400482 323.724945,231.400314 
	C325.346283,262.926147 317.459015,292.136353 299.346008,318.041992 
	C271.319702,358.125824 232.167313,378.149872 183.614380,379.830200 
	C183.614380,393.432465 183.614380,406.514038 183.614380,420.028290 
	C219.334763,419.794952 251.746979,409.971130 282.044891,390.524628 
M123.365524,309.975983 
	C128.860275,318.820984 137.010193,322.789551 147.220993,322.804108 
	C171.860336,322.839264 196.499969,322.879181 221.139023,322.788605 
	C232.862579,322.745514 241.751129,317.704346 246.420013,306.701019 
	C250.930237,296.071655 248.378235,286.586212 240.751907,278.184601 
	C229.790329,266.108704 218.868469,253.996277 207.993759,241.842087 
	C194.571320,226.840408 173.772705,226.785767 160.290283,241.776718 
	C149.385239,253.901886 138.467331,266.015533 127.564796,278.142975 
	C118.842529,287.845245 117.430397,297.542664 123.365524,309.975983 
M196.872498,172.609131 
	C194.135971,184.576752 198.947433,196.005142 209.113739,201.684998 
	C219.056900,207.240219 231.361877,205.682098 239.634857,197.820251 
	C247.768555,190.090775 250.071121,177.482941 244.734390,167.524963 
	C239.654526,158.046326 231.476501,152.952194 220.679291,153.512573 
	C208.835297,154.127258 200.916565,160.539810 196.872498,172.609131 
M121.667297,235.031219 
	C121.426598,233.895966 121.198761,232.757797 120.943214,231.625885 
	C118.202202,219.485397 104.399345,210.240356 92.692696,212.295074 
	C74.663948,215.459427 68.699547,231.002243 70.259895,241.013504 
	C72.470215,255.195099 84.742668,265.230469 97.763748,263.866974 
	C112.316589,262.343079 122.195534,250.852051 121.667297,235.031219 
M126.887123,160.371292 
	C116.469337,171.204147 115.959763,186.990417 125.704597,197.004578 
	C135.573517,207.146194 151.340622,207.711029 161.673599,198.293106 
	C172.083405,188.805130 173.104080,173.006683 163.990799,162.425873 
	C154.573853,151.492477 139.141342,150.414398 126.887123,160.371292 
M250.927811,223.544968 
	C250.280685,224.705490 249.558105,225.830856 248.998322,227.032074 
	C244.230042,237.264053 246.772980,249.954941 255.010239,257.184509 
	C264.070953,265.136780 277.062012,266.047638 286.794678,259.413025 
	C296.227997,252.982468 300.550507,240.705780 296.799164,229.895493 
	C293.263702,219.707275 285.812256,213.694565 275.205048,212.368088 
	C265.372803,211.138550 257.409637,215.153473 250.927811,223.544968 
z"/>
<path fill="#3E67F4" opacity="1.000000" stroke="none" 
	d="
M281.749054,390.732361 
	C251.746979,409.971130 219.334763,419.794952 183.614380,420.028290 
	C183.614380,406.514038 183.614380,393.432465 183.614380,379.830200 
	C232.167313,378.149872 271.319702,358.125824 299.346008,318.041992 
	C317.459015,292.136353 325.346283,262.926147 323.724945,231.400314 
	C320.022003,159.400482 261.669769,99.227577 183.684143,97.697151 
	C183.684143,84.655968 183.684143,71.591385 183.684143,57.749012 
	C208.517166,57.325836 232.421402,62.476284 255.241241,72.576561 
	C296.784973,90.964218 327.447815,120.783646 347.002136,161.775040 
	C385.650146,242.792252 357.712219,340.896881 281.749054,390.732361 
z"/>
<path fill="#3E67F4" opacity="1.000000" stroke="none" 
	d="
M123.182716,309.646606 
	C117.430397,297.542664 118.842529,287.845245 127.564796,278.142975 
	C138.467331,266.015533 149.385239,253.901886 160.290283,241.776718 
	C173.772705,226.785767 194.571320,226.840408 207.993759,241.842087 
	C218.868469,253.996277 229.790329,266.108704 240.751907,278.184601 
	C248.378235,286.586212 250.930237,296.071655 246.420013,306.701019 
	C241.751129,317.704346 232.862579,322.745514 221.139023,322.788605 
	C196.499969,322.879181 171.860336,322.839264 147.220993,322.804108 
	C137.010193,322.789551 128.860275,318.820984 123.182716,309.646606 
z"/>
<path fill="#3D67F3" opacity="1.000000" stroke="none" 
	d="
M196.951538,172.207870 
	C200.916565,160.539810 208.835297,154.127258 220.679291,153.512573 
	C231.476501,152.952194 239.654526,158.046326 244.734390,167.524963 
	C250.071121,177.482941 247.768555,190.090775 239.634857,197.820251 
	C231.361877,205.682098 219.056900,207.240219 209.113739,201.684998 
	C198.947433,196.005142 194.135971,184.576752 196.951538,172.207870 
z"/>
<path fill="#3D67F3" opacity="1.000000" stroke="none" 
	d="
M121.750900,235.449738 
	C122.195534,250.852051 112.316589,262.343079 97.763748,263.866974 
	C84.742668,265.230469 72.470215,255.195099 70.259895,241.013504 
	C68.699547,231.002243 74.663948,215.459427 92.692696,212.295074 
	C104.399345,210.240356 118.202202,219.485397 120.943214,231.625885 
	C121.198761,232.757797 121.426598,233.895966 121.750900,235.449738 
z"/>
<path fill="#3D67F4" opacity="1.000000" stroke="none" 
	d="
M127.142891,160.120453 
	C139.141342,150.414398 154.573853,151.492477 163.990799,162.425873 
	C173.104080,173.006683 172.083405,188.805130 161.673599,198.293106 
	C151.340622,207.711029 135.573517,207.146194 125.704597,197.004578 
	C115.959763,186.990417 116.469337,171.204147 127.142891,160.120453 
z"/>
<path fill="#3D67F4" opacity="1.000000" stroke="none" 
	d="
M251.134476,223.242462 
	C257.409637,215.153473 265.372803,211.138550 275.205048,212.368088 
	C285.812256,213.694565 293.263702,219.707275 296.799164,229.895493 
	C300.550507,240.705780 296.227997,252.982468 286.794678,259.413025 
	C277.062012,266.047638 264.070953,265.136780 255.010239,257.184509 
	C246.772980,249.954941 244.230042,237.264053 248.998322,227.032074 
	C249.558105,225.830856 250.280685,224.705490 251.134476,223.242462 
z"/>
</svg>